<?xml version="1.0" encoding="UTF-8"?>
<svg id="Layer_1" xmlns="http://www.w3.org/2000/svg" viewBox="0 0 7.05 7.05">
  <defs>
    <style>
      .cls-1 {
        fill: #d3aa8b;
        fill-rule: evenodd;
      }
    </style>
  </defs>
  <path class="cls-1" d="M3.53.26c.22-.17.48-.26.76-.26.33,0,.65.13.88.37l1.52,1.52c.23.23.37.55.37.88,0,.28-.09.54-.26.76.17.22.26.48.26.76,0,.33-.13.65-.37.88l-1.52,1.52c-.23.23-.55.37-.88.37-.28,0-.54-.09-.76-.26-.22.17-.48.26-.76.26-.33,0-.65-.13-.88-.37l-1.52-1.52C.13,4.93,0,4.62,0,4.29c0-.28.09-.54.26-.76C.09,3.31,0,3.04,0,2.77c0-.33.13-.65.37-.88L1.88.37c.24-.23.55-.37.88-.37.28,0,.54.09.76.26h0ZM5.82,1.51c-.1.15-.15.32-.15.5,0,.24.09.47.26.64l.62.62c.1-.15.15-.32.15-.5,0-.24-.09-.47-.26-.64l-.62-.62h0ZM5.54,1.24l-.62-.62c-.17-.17-.4-.26-.63-.26-.18,0-.35.05-.5.15l.62.62c.17.17.4.26.64.26.18,0,.35-.05.5-.15h0ZM4.81,3.53c-.17-.22-.26-.48-.26-.76,0-.1.01-.21.04-.31-.1.03-.2.04-.31.04-.28,0-.54-.09-.76-.26-.22.17-.48.26-.76.26-.1,0-.21-.01-.31-.04.03.1.04.2.04.31,0,.28-.09.54-.26.76.17.22.26.48.26.76,0,.1-.01.21-.04.31.1-.03.2-.04.31-.04.28,0,.54.09.76.26.22-.17.48-.26.76-.26.1,0,.21.01.31.04-.03-.1-.04-.2-.04-.31,0-.28.09-.54.26-.76h0ZM5.06,3.27l.51-.51c-.16-.22-.25-.48-.25-.75,0-.1.01-.21.04-.31-.1.03-.2.04-.31.04-.33,0-.65-.13-.88-.37l-.64-.64-.51.51.64.64c.17.17.4.26.64.26s.47-.09.64-.26l.25.25c-.17.17-.26.4-.26.64,0,.18.05.35.15.5h0ZM3.27.5c-.15-.1-.32-.15-.5-.15-.24,0-.47.09-.64.26l-.62.62c.15.1.32.15.5.15.24,0,.47-.09.64-.26l.62-.62h0ZM5.35,5.35c-.03-.1-.04-.2-.04-.31,0-.33.13-.65.37-.88l.63-.64-.51-.51-.64.64c-.17.17-.26.4-.26.64s.09.47.26.64l-.25.25c-.17-.17-.4-.26-.63-.26-.18,0-.35.05-.5.15l.51.51c.22-.16.48-.25.75-.25.1,0,.21.01.31.04h0ZM1.7,5.35c.1-.03.2-.04.31-.04.33,0,.65.13.88.37l.63.64.51-.51-.64-.64c-.17-.17-.4-.26-.64-.26-.24,0-.47.09-.64.26l-.25-.25c.17-.17.26-.4.26-.64,0-.18-.05-.35-.15-.5l-.51.51c.16.22.25.48.25.75,0,.1-.01.21-.04.31h0ZM3.79,6.55c.15.1.32.15.5.15.24,0,.47-.09.64-.26l.62-.62c-.15-.1-.32-.15-.5-.15-.24,0-.47.09-.64.26l-.62.62h0ZM6.55,3.79l-.62.62c-.17.17-.26.4-.26.64,0,.18.05.35.15.5l.62-.62c.17-.17.26-.4.26-.64,0-.18-.05-.35-.15-.5h0ZM3.27,2l-.51-.51c-.22.16-.48.25-.75.25-.1,0-.21-.01-.31-.04.03.1.04.2.04.31,0,.33-.13.65-.37.88l-.64.64.51.51.64-.64c.17-.17.26-.4.26-.64,0-.24-.09-.47-.26-.64l.25-.25c.17.17.4.26.64.26.18,0,.35-.05.5-.15h0ZM.5,3.79c-.1.15-.15.32-.15.5,0,.24.09.47.26.64l.62.62c.1-.15.15-.32.15-.5,0-.24-.09-.47-.26-.64l-.62-.62h0ZM3.27,6.55l-.62-.62c-.17-.17-.4-.26-.63-.26-.18,0-.35.05-.5.15l.62.62c.17.17.4.26.64.26.18,0,.35-.05.5-.15h0ZM.5,3.27l.62-.62c.17-.17.26-.4.26-.64,0-.18-.05-.35-.15-.5l-.62.62c-.17.17-.26.4-.26.64,0,.18.05.35.15.5h0Z"/>
</svg>