<?xml version="1.0" encoding="UTF-8"?>
<svg id="Layer_1" xmlns="http://www.w3.org/2000/svg" version="1.1" viewBox="0 0 267.22 109.78">
  <!-- Generator: Adobe Illustrator 29.1.0, SVG Export Plug-In . SVG Version: 2.1.0 Build 142)  -->
  <defs>
    <style>
      .st0 {
        fill: #d3aa8b;
        fill-rule: evenodd;
      }

      .st1 {
        fill: #6c6d6d;
      }
    </style>
  </defs>
  <path class="st0" d="M53.06,29.03c2.17-1.66,4.83-2.57,7.59-2.57,3.32,0,6.48,1.31,8.83,3.66l15.18,15.18c2.35,2.35,3.66,5.51,3.66,8.83,0,2.77-.91,5.42-2.57,7.59,1.66,2.17,2.57,4.82,2.57,7.59,0,3.32-1.31,6.48-3.66,8.83l-15.18,15.18c-2.35,2.35-5.51,3.66-8.83,3.66-2.77,0-5.42-.91-7.59-2.57-2.17,1.66-4.82,2.57-7.59,2.57-3.32,0-6.48-1.31-8.83-3.66l-15.18-15.18c-2.35-2.35-3.65-5.51-3.65-8.83,0-2.77.91-5.42,2.57-7.59-1.66-2.17-2.57-4.82-2.57-7.59,0-3.32,1.31-6.48,3.66-8.83l15.18-15.18c2.35-2.35,5.51-3.66,8.83-3.66,2.77,0,5.42.91,7.59,2.57h0ZM75.95,41.54c-.98,1.47-1.51,3.19-1.51,4.99,0,2.39.94,4.66,2.63,6.35l6.23,6.23c.98-1.47,1.51-3.19,1.51-4.99,0-2.39-.94-4.66-2.63-6.35l-6.23-6.23h0ZM73.23,38.82l-6.23-6.23c-1.69-1.69-3.96-2.63-6.35-2.63-1.8,0-3.53.53-4.99,1.51l6.23,6.23c1.69,1.69,3.96,2.63,6.35,2.63,1.8,0,3.53-.53,4.99-1.51h0ZM65.91,61.71c-1.66-2.17-2.57-4.82-2.57-7.59,0-1.05.13-2.08.38-3.08-1,.25-2.03.38-3.08.38-2.77,0-5.42-.91-7.59-2.57-2.17,1.66-4.82,2.57-7.59,2.57-1.05,0-2.08-.13-3.08-.38.25,1,.38,2.03.38,3.08,0,2.77-.91,5.42-2.57,7.59,1.66,2.17,2.57,4.82,2.57,7.59,0,1.05-.13,2.08-.38,3.08,1-.25,2.03-.38,3.08-.38,2.77,0,5.42.91,7.59,2.57,2.17-1.66,4.82-2.57,7.59-2.57,1.04,0,2.08.13,3.08.38-.26-1-.38-2.03-.38-3.08,0-2.77.91-5.42,2.57-7.59h0ZM68.36,59.12l5.08-5.08c-1.62-2.15-2.5-4.77-2.5-7.5,0-1.05.13-2.08.38-3.08-1,.25-2.03.38-3.08.38-3.32,0-6.48-1.31-8.83-3.66l-6.35-6.35-5.11,5.11,6.35,6.35c1.69,1.69,3.96,2.63,6.36,2.63s4.66-.94,6.35-2.63l2.48,2.48c-1.69,1.69-2.63,3.96-2.63,6.35,0,1.8.53,3.53,1.51,4.99h0ZM50.46,31.47c-1.47-.98-3.19-1.51-4.99-1.51-2.39,0-4.66.94-6.35,2.63l-6.23,6.23c1.46.98,3.19,1.51,4.99,1.51,2.39,0,4.66-.94,6.35-2.63l6.23-6.23h0ZM71.32,79.98c-.25-1-.38-2.03-.38-3.08,0-3.32,1.31-6.48,3.66-8.83l6.35-6.35-5.11-5.11-6.35,6.35c-1.69,1.69-2.63,3.96-2.63,6.35s.94,4.66,2.63,6.35l-2.48,2.48c-1.69-1.69-3.96-2.63-6.35-2.63-1.8,0-3.53.53-4.99,1.51l5.08,5.08c2.15-1.62,4.78-2.51,7.51-2.51,1.04,0,2.08.13,3.08.38h0ZM34.8,79.98c1-.25,2.03-.38,3.08-.38,3.32,0,6.48,1.31,8.83,3.66l6.35,6.35,5.11-5.11-6.35-6.35c-1.69-1.69-3.96-2.63-6.35-2.63-2.39,0-4.66.94-6.35,2.63l-2.48-2.48c1.69-1.69,2.63-3.96,2.63-6.35,0-1.8-.53-3.53-1.51-4.99l-5.08,5.08c1.62,2.15,2.51,4.77,2.51,7.5,0,1.05-.13,2.08-.39,3.08h0ZM55.65,91.96c1.47.98,3.2,1.51,5,1.51,2.39,0,4.66-.94,6.35-2.63l6.23-6.23c-1.47-.98-3.19-1.51-4.99-1.51-2.39,0-4.66.94-6.35,2.63l-6.23,6.23h0ZM83.3,64.32l-6.23,6.23c-1.69,1.69-2.63,3.96-2.63,6.35,0,1.8.53,3.53,1.51,4.99l6.23-6.23c1.69-1.69,2.63-3.96,2.63-6.35,0-1.8-.53-3.53-1.51-4.99h0ZM50.46,46.41l-5.08-5.08c-2.15,1.62-4.77,2.51-7.5,2.51-1.05,0-2.08-.13-3.08-.38.25,1,.38,2.03.38,3.08,0,3.32-1.31,6.48-3.66,8.83l-6.35,6.35,5.11,5.11,6.35-6.35c1.69-1.69,2.63-3.96,2.63-6.35,0-2.39-.94-4.66-2.63-6.35l2.48-2.48c1.69,1.69,3.96,2.63,6.35,2.63,1.79,0,3.53-.53,4.99-1.51h0ZM22.81,64.32c-.98,1.46-1.51,3.19-1.51,4.99,0,2.39.94,4.66,2.63,6.35l6.23,6.23c.98-1.47,1.52-3.2,1.52-4.99,0-2.39-.94-4.66-2.63-6.35l-6.23-6.23h0ZM50.46,91.96l-6.23-6.23c-1.69-1.69-3.96-2.63-6.35-2.63-1.8,0-3.53.53-4.99,1.51l6.23,6.23c1.69,1.69,3.96,2.63,6.35,2.63,1.79,0,3.53-.53,4.99-1.51h0ZM22.81,59.12l6.23-6.23c1.69-1.69,2.63-3.96,2.63-6.35,0-1.8-.53-3.53-1.51-4.99l-6.23,6.23c-1.69,1.69-2.63,3.96-2.63,6.35,0,1.8.53,3.53,1.51,4.99h0Z"/>
  <g>
    <path class="st1" d="M118.73,58.38v.75h-6.45v-.75l1.05-.02-.99-3.51h-3.64l-.71,3.51,1.09.02v.75h-4.84v-.75l1.05-.02,4.8-13.4,2.65-.36,4.92,13.77,1.05.02ZM112.11,54.05l-1.88-6.7-1.35,6.7h3.23Z"/>
    <path class="st1" d="M133.33,58.38v.75h-5.16l-2.91-5.74.06-.04c-.33.03-.79.06-1.39.09v4.92l1.05.02v.75h-5.65v-.75l1.05-.02v-12.8l-1.05-.02v-.75l4.13.04,3.19-.26c1.03,0,1.91.19,2.64.57.73.38,1.29.88,1.67,1.52.38.64.57,1.34.57,2.11,0,.89-.26,1.66-.77,2.31-.51.66-1.28,1.19-2.31,1.59l3.83,5.7,1.05.02ZM123.93,52.59c1.19-.07,2.11-.4,2.78-.97.67-.58,1.01-1.36,1.01-2.34,0-.7-.16-1.33-.49-1.91-.33-.57-.78-1.02-1.35-1.35s-1.22-.49-1.95-.49v7.07Z"/>
    <path class="st1" d="M138.74,58.35l1.05.02v.75h-5.65v-.75l1.05-.02v-12.8l-1.05-.02v-.75h5.65v.75l-1.05.02v12.8ZM148.32,58.38v.75h-6.66v-.75l1.05-.02-3.64-6.27,4.65-6.53-1.05-.02v-.75h5.1v.75l-1.16.02-4.75,4.6,5.42,8.2,1.05.02Z"/>
    <path class="st1" d="M162.88,58.38v.75h-6.45v-.75l1.05-.02-.99-3.51h-3.64l-.71,3.51,1.09.02v.75h-4.84v-.75l1.05-.02,4.8-13.4,2.65-.36,4.92,13.77,1.05.02ZM156.26,54.05l-1.88-6.7-1.35,6.7h3.23Z"/>
    <path class="st1" d="M177.69,44.78v.75l-1.05.02-.56,13.55-2.59.02-7.73-12.16.81,11.39,1.26.02v.75h-4.37v-.75l1.05-.02.36-12.8-1.05-.02v-.75h5.29l6.23,9.66-.56-8.88-1.26-.02v-.75h4.15Z"/>
  </g>
  <g>
    <path class="st1" d="M184.54,49.88h1.42l3.37,9.27h-1.38l-.94-2.78h-3.67l-1,2.78h-1.29l3.49-9.27ZM186.61,55.36l-1.41-4.1-1.5,4.1h2.9Z"/>
    <path class="st1" d="M191.64,49.88h1.14v9.27h-1.14v-9.27Z"/>
    <path class="st1" d="M195.48,54.97h3.17v1.17h-3.17v-1.17Z"/>
    <path class="st1" d="M201.6,50.51h1.15v1.89h1.08v.93h-1.08v4.41c0,.24.08.39.24.47.09.05.24.07.44.07.05,0,.11,0,.18,0,.06,0,.14,0,.22-.02v.9c-.13.04-.27.07-.41.08-.14.02-.29.03-.46.03-.53,0-.89-.14-1.08-.41s-.28-.62-.28-1.06v-4.48h-.92v-.93h.92v-1.89Z"/>
    <path class="st1" d="M209.89,55.07c.26-.03.44-.14.52-.33.05-.1.08-.25.08-.44,0-.39-.14-.67-.41-.85-.28-.18-.67-.26-1.18-.26-.59,0-1.01.16-1.26.48-.14.18-.23.44-.27.79h-1.06c.02-.84.29-1.42.81-1.74.52-.33,1.12-.49,1.81-.49.79,0,1.44.15,1.94.45.49.3.74.77.74,1.41v3.9c0,.12.02.21.07.28.05.07.15.11.31.11.05,0,.11,0,.17,0,.06,0,.13-.02.2-.03v.84c-.18.05-.31.08-.4.09-.09.01-.22.02-.38.02-.39,0-.68-.14-.85-.42-.09-.15-.16-.36-.2-.62-.23.3-.56.57-1,.79-.43.22-.91.33-1.43.33-.63,0-1.14-.19-1.54-.57-.4-.38-.6-.86-.6-1.43,0-.63.2-1.11.59-1.46.39-.34.9-.56,1.54-.64l1.81-.23ZM207.49,58.14c.24.19.52.28.85.28.4,0,.79-.09,1.16-.28.63-.31.95-.81.95-1.51v-.91c-.14.09-.32.16-.54.22-.22.06-.43.1-.64.13l-.69.09c-.41.05-.72.14-.93.26-.35.2-.53.51-.53.94,0,.33.12.59.36.77Z"/>
    <path class="st1" d="M215.28,50.33c.27-.39.78-.58,1.53-.58.07,0,.15,0,.22,0,.08,0,.16.01.26.02v1.04c-.12,0-.21-.01-.26-.02-.05,0-.1,0-.15,0-.35,0-.56.09-.63.27-.07.18-.1.63-.1,1.37h1.14v.9h-1.14v5.83h-1.12v-5.83h-.94v-.9h.94v-1.06c.02-.47.1-.82.25-1.04Z"/>
    <path class="st1" d="M223.25,55.07c.26-.03.44-.14.52-.33.05-.1.08-.25.08-.44,0-.39-.14-.67-.41-.85-.28-.18-.67-.26-1.18-.26-.59,0-1.01.16-1.26.48-.14.18-.23.44-.27.79h-1.06c.02-.84.29-1.42.81-1.74.52-.33,1.12-.49,1.81-.49.79,0,1.44.15,1.94.45.49.3.74.77.74,1.41v3.9c0,.12.02.21.07.28.05.07.15.11.31.11.05,0,.11,0,.17,0,.06,0,.13-.02.2-.03v.84c-.18.05-.31.08-.4.09-.09.01-.22.02-.38.02-.39,0-.68-.14-.85-.42-.09-.15-.16-.36-.2-.62-.23.3-.56.57-1,.79-.43.22-.91.33-1.43.33-.63,0-1.14-.19-1.54-.57-.4-.38-.6-.86-.6-1.43,0-.63.2-1.11.59-1.46.39-.34.9-.56,1.54-.64l1.81-.23ZM220.86,58.14c.24.19.52.28.85.28.4,0,.79-.09,1.16-.28.63-.31.95-.81.95-1.51v-.91c-.14.09-.32.16-.54.22-.22.06-.43.1-.64.13l-.69.09c-.41.05-.72.14-.93.26-.35.2-.53.51-.53.94,0,.33.12.59.36.77Z"/>
    <path class="st1" d="M228.64,52.4l1.3,5.33,1.32-5.33h1.28l1.33,5.3,1.38-5.3h1.14l-1.96,6.76h-1.18l-1.38-5.23-1.33,5.23h-1.18l-1.95-6.76h1.24Z"/>
    <path class="st1" d="M239.88,52.4v4.49c0,.35.05.63.16.85.2.4.56.61,1.1.61.77,0,1.3-.35,1.57-1.06.15-.38.23-.9.23-1.56v-3.32h1.14v6.76h-1.07v-1c-.13.26-.31.47-.53.65-.43.35-.94.53-1.55.53-.95,0-1.59-.32-1.93-.97-.19-.35-.28-.81-.28-1.38v-4.6h1.16Z"/>
    <path class="st1" d="M251.04,52.67c.21.15.41.37.61.67v-.94h1.07v9.46h-1.14v-3.47c-.19.3-.45.54-.79.72-.33.18-.75.27-1.25.27-.72,0-1.36-.28-1.93-.85-.57-.56-.85-1.42-.85-2.58,0-1.08.27-1.97.8-2.66.53-.69,1.22-1.04,2.07-1.04.56,0,1.03.14,1.41.42ZM248.2,57.34c.29.7.81,1.05,1.56,1.05.79,0,1.33-.37,1.63-1.11.16-.41.25-.93.25-1.57,0-.58-.09-1.07-.27-1.46-.31-.67-.85-1-1.62-1-.49,0-.91.21-1.26.64-.35.43-.53,1.09-.53,1.98,0,.59.08,1.08.25,1.47Z"/>
  </g>
  <g>
    <path class="st1" d="M104.94,69.97h3.98v.7h-3.2v1.74h2.82v.68h-2.82v2.61h-.78v-5.74Z"/>
    <path class="st1" d="M118.23,70.79c.38.51.57,1.16.57,1.95,0,.86-.22,1.57-.65,2.14-.51.67-1.24,1-2.18,1-.88,0-1.58-.29-2.08-.88-.45-.56-.68-1.27-.68-2.13,0-.78.19-1.44.58-1.99.49-.71,1.23-1.06,2.2-1.06s1.76.33,2.25.98ZM117.55,74.44c.31-.49.46-1.06.46-1.69,0-.68-.18-1.22-.53-1.63-.35-.41-.84-.62-1.45-.62s-1.08.2-1.45.61-.56,1.01-.56,1.8c0,.64.16,1.17.48,1.61.32.44.84.65,1.56.65.68,0,1.18-.25,1.49-.74Z"/>
    <path class="st1" d="M123.58,69.97h2.61c.43,0,.78.06,1.06.19.53.24.79.7.79,1.36,0,.34-.07.62-.21.84-.14.22-.34.39-.6.53.22.09.39.21.51.36s.18.39.19.72l.03.77c0,.22.03.38.05.49.05.18.13.3.25.35v.13h-.95s-.05-.11-.06-.19-.03-.23-.04-.45l-.05-.96c-.02-.38-.15-.63-.41-.75-.14-.07-.37-.11-.68-.11h-1.72v2.46h-.78v-5.74ZM126.11,72.6c.35,0,.63-.07.84-.22.21-.15.31-.41.31-.79,0-.41-.14-.69-.43-.84-.15-.08-.36-.12-.62-.12h-1.85v1.96h1.75Z"/>
    <path class="st1" d="M143.07,70.38c.4.38.62.82.66,1.3h-.76c-.08-.37-.25-.66-.5-.88-.25-.22-.61-.32-1.06-.32-.55,0-1,.2-1.34.6-.34.4-.51,1.01-.51,1.83,0,.67.15,1.22.46,1.64.31.42.77.63,1.38.63.56,0,.99-.22,1.29-.66.16-.23.27-.54.35-.91h.76c-.07.6-.29,1.11-.66,1.52-.45.49-1.06.74-1.82.74-.66,0-1.21-.2-1.66-.61-.59-.53-.88-1.36-.88-2.47,0-.85.22-1.54.66-2.08.48-.59,1.14-.88,1.98-.88.72,0,1.28.19,1.67.57Z"/>
    <path class="st1" d="M153.27,70.79c.38.51.57,1.16.57,1.95,0,.86-.22,1.57-.65,2.14-.51.67-1.24,1-2.18,1-.88,0-1.58-.29-2.08-.88-.45-.56-.68-1.27-.68-2.13,0-.78.19-1.44.58-1.99.49-.71,1.23-1.06,2.2-1.06s1.76.33,2.25.98ZM152.59,74.44c.31-.49.46-1.06.46-1.69,0-.68-.18-1.22-.53-1.63-.35-.41-.84-.62-1.45-.62s-1.08.2-1.45.61-.56,1.01-.56,1.8c0,.64.16,1.17.48,1.61.32.44.84.65,1.56.65.68,0,1.18-.25,1.49-.74Z"/>
    <path class="st1" d="M158.53,69.97h.92l2.86,4.64v-4.64h.74v5.74h-.87l-2.9-4.63v4.63h-.74v-5.74Z"/>
    <path class="st1" d="M168.58,73.85c.02.33.09.59.22.79.25.38.69.57,1.31.57.28,0,.54-.04.77-.12.45-.16.67-.45.67-.87,0-.31-.09-.54-.28-.67-.19-.13-.49-.24-.9-.34l-.75-.18c-.49-.11-.84-.24-1.04-.38-.35-.24-.53-.6-.53-1.07,0-.52.17-.94.52-1.27.35-.33.84-.5,1.47-.5.59,0,1.08.15,1.49.44.41.29.61.75.61,1.39h-.73c-.04-.31-.12-.54-.24-.71-.23-.3-.61-.45-1.16-.45-.44,0-.75.1-.95.29-.19.19-.29.42-.29.67,0,.28.11.49.34.62.15.08.49.19,1.01.31l.78.18c.38.09.67.21.87.36.35.27.53.66.53,1.17,0,.64-.23,1.09-.68,1.36-.45.27-.97.41-1.57.41-.7,0-1.24-.18-1.63-.55-.39-.36-.59-.85-.58-1.47h.73Z"/>
    <path class="st1" d="M181.34,69.97v.68h-1.93v5.05h-.79v-5.05h-1.93v-.68h4.65Z"/>
    <path class="st1" d="M185.9,69.97h2.61c.43,0,.78.06,1.06.19.53.24.79.7.79,1.36,0,.34-.07.62-.21.84-.14.22-.34.39-.6.53.22.09.39.21.51.36s.18.39.19.72l.03.77c0,.22.03.38.05.49.05.18.13.3.25.35v.13h-.95s-.05-.11-.06-.19-.03-.23-.04-.45l-.05-.96c-.02-.38-.15-.63-.41-.75-.14-.07-.37-.11-.68-.11h-1.72v2.46h-.78v-5.74ZM188.43,72.6c.35,0,.63-.07.84-.22.21-.15.31-.41.31-.79,0-.41-.14-.69-.43-.84-.15-.08-.36-.12-.62-.12h-1.85v1.96h1.75Z"/>
    <path class="st1" d="M196.19,69.97v3.55c0,.42.08.76.24,1.04.23.42.63.62,1.18.62.66,0,1.12-.23,1.35-.68.13-.24.19-.57.19-.99v-3.55h.79v3.22c0,.71-.09,1.25-.29,1.63-.35.69-1.01,1.04-1.98,1.04s-1.63-.35-1.98-1.04c-.19-.38-.29-.92-.29-1.63v-3.22h.79Z"/>
    <path class="st1" d="M208.94,70.38c.4.38.62.82.66,1.3h-.76c-.08-.37-.25-.66-.5-.88-.25-.22-.61-.32-1.06-.32-.55,0-1,.2-1.34.6-.34.4-.51,1.01-.51,1.83,0,.67.15,1.22.46,1.64.31.42.77.63,1.38.63.56,0,.99-.22,1.29-.66.16-.23.27-.54.35-.91h.76c-.07.6-.29,1.11-.66,1.52-.45.49-1.06.74-1.82.74-.66,0-1.21-.2-1.66-.61-.59-.53-.88-1.36-.88-2.47,0-.85.22-1.54.66-2.08.48-.59,1.14-.88,1.98-.88.72,0,1.28.19,1.67.57Z"/>
    <path class="st1" d="M218.59,69.97v.68h-1.93v5.05h-.79v-5.05h-1.93v-.68h4.65Z"/>
    <path class="st1" d="M223.24,69.97h.79v5.74h-.79v-5.74Z"/>
    <path class="st1" d="M233.78,70.79c.38.51.57,1.16.57,1.95,0,.86-.22,1.57-.65,2.14-.51.67-1.24,1-2.18,1-.88,0-1.58-.29-2.08-.88-.45-.56-.68-1.27-.68-2.13,0-.78.19-1.44.58-1.99.49-.71,1.23-1.06,2.2-1.06s1.76.33,2.25.98ZM233.09,74.44c.31-.49.46-1.06.46-1.69,0-.68-.18-1.22-.53-1.63-.35-.41-.84-.62-1.45-.62s-1.08.2-1.45.61-.56,1.01-.56,1.8c0,.64.16,1.17.48,1.61.32.44.84.65,1.56.65.68,0,1.18-.25,1.49-.74Z"/>
    <path class="st1" d="M239.03,69.97h.92l2.86,4.64v-4.64h.74v5.74h-.87l-2.9-4.63v4.63h-.74v-5.74Z"/>
    <path class="st1" d="M249.08,73.85c.02.33.09.59.22.79.25.38.69.57,1.31.57.28,0,.54-.04.77-.12.45-.16.67-.45.67-.87,0-.31-.09-.54-.28-.67-.19-.13-.49-.24-.9-.34l-.75-.18c-.49-.11-.84-.24-1.04-.38-.35-.24-.53-.6-.53-1.07,0-.52.17-.94.52-1.27.35-.33.84-.5,1.48-.5.58,0,1.08.15,1.49.44.41.29.61.75.61,1.39h-.73c-.04-.31-.12-.54-.24-.71-.23-.3-.61-.45-1.16-.45-.44,0-.76.1-.95.29-.19.19-.29.42-.29.67,0,.28.11.49.34.62.15.08.49.19,1.01.31l.78.18c.38.09.67.21.87.36.35.27.53.66.53,1.17,0,.64-.23,1.09-.68,1.36-.45.27-.97.41-1.57.41-.7,0-1.24-.18-1.63-.55-.39-.36-.59-.85-.58-1.47h.73Z"/>
  </g>
</svg>